PathFileType	4	(X/Y/Z)	c:/Users/goper/Files/vsCode/490R/osim_files/C12/C12_Fast_06.trc
DataRate	CameraRate	NumFrames	NumMarkers	Units                	OrigDataRate	OrigDataStartFrame	OrigNumFrames
120.00	120.00	6	36	mm	120.0	714	951
                Frame#	Time	LPSIS			LASIS			LTH1			LTH2			LTH3			LTH4			LLFE			LMFE			LSH1			LSH2			LSH3			LSH4			LLMAL			LMMAL			LCAL			LMTP5			LTOE			LMTP1			RPSIS			RASIS			RTH1			RTH2			RTH3			RTH4			RLFE			RMFE			RSH1			RSH2			RSH3			RSH4			RLMAL			RMMAL			RCAL			RMTP1			RTOE			RMTP5		
		X1	Y1	Z1	X2	Y2	Z2	X3	Y3	Z3	X4	Y4	Z4	X5	Y5	Z5	X6	Y6	Z6	X7	Y7	Z7	X8	Y8	Z8	X9	Y9	Z9	X10	Y10	Z10	X11	Y11	Z11	X12	Y12	Z12	X13	Y13	Z13	X14	Y14	Z14	X15	Y15	Z15	X16	Y16	Z16	X17	Y17	Z17	X18	Y18	Z18	X19	Y19	Z19	X20	Y20	Z20	X21	Y21	Z21	X22	Y22	Z22	X23	Y23	Z23	X24	Y24	Z24	X25	Y25	Z25	X26	Y26	Z26	X27	Y27	Z27	X28	Y28	Z28	X29	Y29	Z29	X30	Y30	Z30	X31	Y31	Z31	X32	Y32	Z32	X33	Y33	Z33	X34	Y34	Z34	X35	Y35	Z35	X36	Y36	Z36

714	5.94167	-2555.88379	1057.60327	286.87222	-2728.26929	1021.97455	367.27911	-2643.97021	734.20599	415.73627	-2652.49194	691.34357	416.64368	-2700.36499	744.59167	433.17877	-2703.06787	699.10541	433.09418	-2715.54077	520.22382	413.27887	-2746.93066	502.47607	289.59552	-2613.73438	497.10748	412.93680	-2577.52319	467.87033	417.03857	-2649.04810	446.08221	421.08270	-2606.24683	424.11554	419.62814	-2358.19067	284.21033	348.84006	-2382.90088	270.65692	275.87219	-2327.94263	334.39200	305.54642	-2328.12207	133.56602	359.69083	-2388.14062	98.08287	304.59290	-2361.73950	120.03047	256.99728	-2560.06543	1062.10083	175.86194	-2747.46655	1042.77258	113.69483	-2716.97827	748.75983	54.26075	-2730.68091	706.94708	65.97369	-2776.33887	764.64996	64.75916	-2783.18164	718.38916	71.69258	-2780.58032	537.29150	115.70082	-2768.44922	543.69153	247.55907	-2717.44849	437.49008	96.18430	-2718.17847	394.49887	92.79723	-2780.32837	431.43600	106.54935	-2771.85791	389.66534	99.90195	-2724.39478	106.48607	152.18503	-2738.18359	122.10561	234.01880	-2647.83691	73.16629	190.83421	-2863.21167	56.16358	237.42618	-2904.96948	77.71558	206.15439	-2873.42700	49.04414	130.71872
715	5.95000	-2568.68848	1061.51880	286.55676	-2741.36743	1026.10620	366.45361	-2662.75391	737.41815	415.88330	-2672.11060	694.77045	416.77560	-2718.71289	748.93787	433.33682	-2722.51392	703.62622	433.31061	-2739.14404	524.95605	413.63834	-2771.29688	507.55780	290.06381	-2639.07422	500.55463	413.58838	-2602.34033	471.17456	417.39755	-2674.23560	450.17715	421.64676	-2631.83765	427.50595	419.89645	-2386.32178	282.54855	349.16977	-2411.00879	269.74478	276.26007	-2352.60181	330.53207	305.87012	-2364.51440	130.60693	361.93793	-2425.51147	97.71214	306.01053	-2397.17139	117.92639	258.82678	-2570.86426	1064.29480	173.81868	-2759.20630	1045.76807	113.23615	-2723.39917	750.69891	54.83733	-2736.76025	708.48657	65.88794	-2783.32544	765.14874	63.98330	-2790.54102	719.28064	71.01366	-2783.42896	537.63635	115.21296	-2772.48218	544.17712	246.53767	-2719.78760	438.29333	95.93192	-2719.94238	395.21677	92.52894	-2782.60010	431.61249	105.75889	-2773.51733	390.07773	99.36594	-2724.71826	107.01063	152.10312	-2738.75293	122.76289	233.92468	-2649.75708	73.20045	191.16054	-2863.51636	56.04456	237.36853	-2905.26489	77.27814	206.07202	-2873.72998	48.96032	130.77011
716	5.95833	-2582.49463	1065.24292	286.07339	-2754.17773	1029.98926	365.65363	-2681.47388	740.75732	416.11212	-2691.71655	698.32141	417.04382	-2737.34692	753.48859	433.54611	-2741.87988	708.26312	433.57568	-2762.82837	530.03784	413.91782	-2795.40234	512.90314	290.25308	-2662.67700	504.21353	413.55356	-2627.18701	474.02588	417.59903	-2698.84888	454.10214	421.83038	-2657.36255	430.76978	420.04852	-2414.68555	280.08090	349.53058	-2439.16797	268.32910	276.78592	-2377.83569	325.67996	306.00513	-2401.23584	127.29735	364.17068	-2463.81689	97.42536	308.07327	-2433.87085	115.33852	261.07254	-2584.50977	1067.56738	173.57089	-2771.35059	1048.75305	112.87001	-2730.13721	752.43561	54.91915	-2743.73193	710.24500	67.92157	-2790.45312	765.82385	63.32687	-2795.56396	719.25983	70.80029	-2786.08154	537.98682	114.84600	-2776.63770	544.59894	246.32458	-2721.92310	439.17755	95.68577	-2722.51367	395.95898	92.09766	-2784.54688	432.28787	106.22151	-2775.37231	390.60666	99.06001	-2724.88574	107.67709	152.05803	-2739.82812	123.29841	234.60168	-2650.09741	74.04411	191.12466	-2863.80884	55.93884	237.30611	-2906.09570	76.83132	205.99626	-2873.99731	48.77249	130.75948
717	5.96667	-2594.81323	1069.25452	285.92517	-2767.18213	1033.81079	364.80292	-2700.09033	744.11218	416.51453	-2710.84155	702.23102	417.59125	-2755.21997	757.40228	432.91797	-2761.25684	712.95862	433.78595	-2785.95557	535.17175	413.91904	-2819.77197	518.61670	290.06622	-2687.36523	507.20444	413.97293	-2651.71680	476.47864	417.65479	-2724.54541	457.85941	421.94180	-2682.28760	433.81149	419.90942	-2442.64600	276.55179	349.73874	-2468.36670	265.86008	277.67206	-2403.54541	319.34085	305.88962	-2437.92822	123.55475	366.53580	-2502.62280	96.74510	310.30655	-2471.53906	112.30514	263.57928	-2597.03003	1071.47290	174.14317	-2782.51978	1051.04260	112.21777	-2736.71191	754.01196	55.14528	-2749.78857	711.67725	68.03436	-2797.37671	766.34821	62.76302	-2801.82031	719.75989	70.33743	-2788.74780	538.60907	114.45775	-2781.00928	545.13208	246.21434	-2723.75098	439.98679	95.52908	-2724.54810	396.73355	92.07100	-2786.69946	432.74112	106.06107	-2777.31909	391.17557	98.89818	-2725.60156	108.35628	152.15585	-2740.69971	124.03951	234.75444	-2649.84668	75.28941	190.88995	-2864.06421	55.83034	237.27165	-2906.45557	76.49276	205.93231	-2874.22192	48.63474	130.75391
718	5.97500	-2608.35010	1072.65417	285.81851	-2780.03076	1037.11609	363.98846	-2718.60889	747.36212	417.11279	-2730.29736	704.98389	417.34509	-2774.70483	762.52057	433.65256	-2780.63794	717.72516	433.97632	-2808.85059	540.43146	413.78604	-2843.10962	524.40240	289.76242	-2712.66650	508.99594	413.92133	-2676.30591	478.45422	417.77527	-2749.40601	461.39380	421.65384	-2708.11450	436.42133	420.05322	-2472.36914	272.12845	350.42645	-2498.42432	262.26505	278.43161	-2430.59424	312.40793	305.70187	-2474.68237	119.50127	369.01865	-2541.84302	96.17001	313.18417	-2509.74634	108.91323	266.47989	-2609.48706	1073.61731	174.56897	-2794.64429	1053.45166	111.72320	-2743.37305	755.56927	55.44611	-2755.65332	712.96350	68.37476	-2804.52905	766.84039	62.33622	-2808.14038	720.11700	70.01875	-2790.55981	538.64594	114.86561	-2785.87256	545.71277	246.06813	-2726.41064	440.81857	95.62866	-2726.17749	397.56845	91.96555	-2789.02222	433.06607	105.21421	-2779.21655	391.81079	99.11670	-2726.02148	109.01651	152.24684	-2740.99023	124.65582	234.58398	-2650.18579	76.13245	190.92789	-2864.03955	55.81086	237.22791	-2906.78979	76.19315	205.89641	-2874.44189	48.51646	130.75484
719	5.98333	-2621.27295	1075.90369	285.94687	-2792.90063	1040.20410	363.16537	-2737.46509	750.49963	417.91708	-2749.51025	708.70624	418.13095	-2792.91748	767.07971	434.05005	-2799.75024	722.38715	434.11334	-2830.31860	546.10748	413.51190	-2866.03955	530.34967	289.16479	-2734.70264	511.87967	413.58664	-2700.55420	479.92230	417.74561	-2774.33813	464.42139	421.42270	-2733.37256	438.60406	420.01028	-2501.88037	266.93100	350.99179	-2529.08545	257.35678	279.05658	-2458.41162	304.43158	305.39667	-2511.57837	115.05897	371.68607	-2581.19849	95.29244	316.78503	-2547.75879	104.60284	269.05875	-2622.00537	1077.37427	174.16165	-2806.22388	1055.16870	111.06839	-2748.01636	757.49042	56.99460	-2761.58423	714.11322	68.71139	-2811.27490	766.96332	61.88137	-2814.05688	720.25043	69.70853	-2792.63013	539.25244	115.13741	-2789.87427	546.55164	246.26703	-2728.43042	441.69217	95.94175	-2728.54224	398.33234	92.50168	-2791.17017	433.64725	105.55764	-2781.07080	392.32999	99.39030	-2726.32495	109.70596	152.35233	-2741.48267	125.22980	234.64911	-2649.70264	77.52285	190.58073	-2864.36035	55.31764	238.26630	-2906.54785	76.03808	205.89505	-2874.53979	48.30050	130.65758
